<?xml version="1.0" encoding="UTF-8" standalone="no"?>
<!DOCTYPE svg PUBLIC "-//W3C//DTD SVG 1.1//EN"
 "http://www.w3.org/Graphics/SVG/1.1/DTD/svg11.dtd">
<!-- Generated by graphviz version 2.40.1 (20161225.0304)
 -->
<!-- Title: snakemake_dag Pages: 1 -->
<svg width="562pt" height="1052pt"
 viewBox="0.00 0.00 562.00 1052.00" xmlns="http://www.w3.org/2000/svg" xmlns:xlink="http://www.w3.org/1999/xlink">
<g id="graph0" class="graph" transform="scale(1 1) rotate(0) translate(4 1048)">
<title>snakemake_dag</title>
<polygon fill="#ffffff" stroke="transparent" points="-4,4 -4,-1048 558,-1048 558,4 -4,4"/>
<!-- 1 -->
<g id="node1" class="node">
<title>1</title>
<path fill="none" stroke="#56d863" stroke-width="2" d="M129,-324C129,-324 99,-324 99,-324 93,-324 87,-318 87,-312 87,-312 87,-300 87,-300 87,-294 93,-288 99,-288 99,-288 129,-288 129,-288 135,-288 141,-294 141,-300 141,-300 141,-312 141,-312 141,-318 135,-324 129,-324"/>
<text text-anchor="middle" x="114" y="-303.5" font-family="sans" font-size="10.00" fill="#000000">busco</text>
</g>
<!-- 2 -->
<g id="node2" class="node">
<title>2</title>
<path fill="none" stroke="#d86e56" stroke-width="2" d="M454,-36C454,-36 416,-36 416,-36 410,-36 404,-30 404,-24 404,-24 404,-12 404,-12 404,-6 410,0 416,0 416,0 454,0 454,0 460,0 466,-6 466,-12 466,-12 466,-24 466,-24 466,-30 460,-36 454,-36"/>
<text text-anchor="middle" x="435" y="-15.5" font-family="sans" font-size="10.00" fill="#000000">rm_mask</text>
</g>
<!-- 3 -->
<g id="node3" class="node">
<title>3</title>
<path fill="none" stroke="#56d0d8" stroke-width="2" d="M351.5,-324C351.5,-324 282.5,-324 282.5,-324 276.5,-324 270.5,-318 270.5,-312 270.5,-312 270.5,-300 270.5,-300 270.5,-294 276.5,-288 282.5,-288 282.5,-288 351.5,-288 351.5,-288 357.5,-288 363.5,-294 363.5,-300 363.5,-300 363.5,-312 363.5,-312 363.5,-318 357.5,-324 351.5,-324"/>
<text text-anchor="middle" x="317" y="-303.5" font-family="sans" font-size="10.00" fill="#000000">assembly_stats</text>
</g>
<!-- 4 -->
<g id="node4" class="node">
<title>4</title>
<path fill="none" stroke="#56d8c9" stroke-width="2" d="M289,-900C289,-900 243,-900 243,-900 237,-900 231,-894 231,-888 231,-888 231,-876 231,-876 231,-870 237,-864 243,-864 243,-864 289,-864 289,-864 295,-864 301,-870 301,-876 301,-876 301,-888 301,-888 301,-894 295,-900 289,-900"/>
<text text-anchor="middle" x="266" y="-879.5" font-family="sans" font-size="10.00" fill="#000000">flye_polish</text>
</g>
<!-- 4&#45;&gt;1 -->
<g id="edge2" class="edge">
<title>4&#45;&gt;1</title>
<path fill="none" stroke="#c0c0c0" stroke-width="2" d="M230.841,-867.3693C211.7625,-858.1508 188.7297,-844.8068 172,-828 87.6069,-743.2184 39,-713.6249 39,-594 39,-594 39,-594 39,-522 39,-450.5212 76.1054,-372.7318 98.1181,-332.8727"/>
<polygon fill="#c0c0c0" stroke="#c0c0c0" stroke-width="2" points="101.2349,-334.4708 103.0944,-324.0404 95.1363,-331.0347 101.2349,-334.4708"/>
</g>
<!-- 4&#45;&gt;3 -->
<g id="edge10" class="edge">
<title>4&#45;&gt;3</title>
<path fill="none" stroke="#c0c0c0" stroke-width="2" d="M275.3313,-863.9025C288.2471,-837.1296 310,-785.0538 310,-738 310,-738 310,-738 310,-522 310,-454.6661 313.4401,-375.5872 315.497,-334.3209"/>
<polygon fill="#c0c0c0" stroke="#c0c0c0" stroke-width="2" points="318.9993,-334.3642 316.0119,-324.1992 312.0083,-334.0085 318.9993,-334.3642"/>
</g>
<!-- 13 -->
<g id="node13" class="node">
<title>13</title>
<path fill="none" stroke="#afd856" stroke-width="2" d="M249,-828C249,-828 193,-828 193,-828 187,-828 181,-822 181,-816 181,-816 181,-804 181,-804 181,-798 187,-792 193,-792 193,-792 249,-792 249,-792 255,-792 261,-798 261,-804 261,-804 261,-816 261,-816 261,-822 255,-828 249,-828"/>
<text text-anchor="middle" x="221" y="-807.5" font-family="sans" font-size="10.00" fill="#000000">haplotigs_ref</text>
</g>
<!-- 4&#45;&gt;13 -->
<g id="edge27" class="edge">
<title>4&#45;&gt;13</title>
<path fill="none" stroke="#c0c0c0" stroke-width="2" d="M254.6446,-863.8314C249.5674,-855.7079 243.4773,-845.9637 237.8824,-837.0118"/>
<polygon fill="#c0c0c0" stroke="#c0c0c0" stroke-width="2" points="240.7763,-835.0383 232.5083,-828.4133 234.8403,-838.7483 240.7763,-835.0383"/>
</g>
<!-- 17 -->
<g id="node17" class="node">
<title>17</title>
<path fill="none" stroke="#56d87b" stroke-width="2" d="M452,-396C452,-396 414,-396 414,-396 408,-396 402,-390 402,-384 402,-384 402,-372 402,-372 402,-366 408,-360 414,-360 414,-360 452,-360 452,-360 458,-360 464,-366 464,-372 464,-372 464,-384 464,-384 464,-390 458,-396 452,-396"/>
<text text-anchor="middle" x="433" y="-375.5" font-family="sans" font-size="10.00" fill="#000000">rm_clean</text>
</g>
<!-- 4&#45;&gt;17 -->
<g id="edge31" class="edge">
<title>4&#45;&gt;17</title>
<path fill="none" stroke="#c0c0c0" stroke-width="2" d="M289.1135,-863.9502C300.5964,-854.1758 314.0955,-841.3803 324,-828 392.8284,-735.0174 438,-709.6854 438,-594 438,-594 438,-594 438,-522 438,-481.8518 436.0347,-435.4451 434.5684,-406.4076"/>
<polygon fill="#c0c0c0" stroke="#c0c0c0" stroke-width="2" points="438.0511,-405.9829 434.036,-396.1784 431.0606,-406.3468 438.0511,-405.9829"/>
</g>
<!-- 5 -->
<g id="node5" class="node">
<title>5</title>
<path fill="none" stroke="#78d856" stroke-width="2" d="M176,-972C176,-972 112,-972 112,-972 106,-972 100,-966 100,-960 100,-960 100,-948 100,-948 100,-942 106,-936 112,-936 112,-936 176,-936 176,-936 182,-936 188,-942 188,-948 188,-948 188,-960 188,-960 188,-966 182,-972 176,-972"/>
<text text-anchor="middle" x="144" y="-951.5" font-family="sans" font-size="10.00" fill="#000000">flye_assemble</text>
</g>
<!-- 5&#45;&gt;1 -->
<g id="edge5" class="edge">
<title>5&#45;&gt;1</title>
<path fill="none" stroke="#c0c0c0" stroke-width="2" d="M99.9035,-940.3599C78.242,-931.7506 53.1752,-918.6659 36,-900 6.8292,-868.2972 0,-853.0813 0,-810 0,-810 0,-810 0,-450 0,-398.5591 45.2736,-354.7654 78.7591,-329.4096"/>
<polygon fill="#c0c0c0" stroke="#c0c0c0" stroke-width="2" points="80.9971,-332.1084 86.9836,-323.367 76.8525,-326.4672 80.9971,-332.1084"/>
</g>
<!-- 5&#45;&gt;3 -->
<g id="edge13" class="edge">
<title>5&#45;&gt;3</title>
<path fill="none" stroke="#c0c0c0" stroke-width="2" d="M138.64,-935.7289C121.372,-874.0971 70.3936,-668.512 107,-504 122.2516,-435.4584 120.7011,-407.9477 172,-360 196.3319,-337.2576 231.1064,-323.8779 260.5013,-316.1264"/>
<polygon fill="#c0c0c0" stroke="#c0c0c0" stroke-width="2" points="261.3791,-319.5148 270.2409,-313.708 259.6921,-312.7211 261.3791,-319.5148"/>
</g>
<!-- 5&#45;&gt;4 -->
<g id="edge15" class="edge">
<title>5&#45;&gt;4</title>
<path fill="none" stroke="#c0c0c0" stroke-width="2" d="M174.7858,-935.8314C190.3903,-926.6221 209.524,-915.3301 226.2303,-905.4706"/>
<polygon fill="#c0c0c0" stroke="#c0c0c0" stroke-width="2" points="228.3909,-908.2596 235.2241,-900.1628 224.8331,-902.2312 228.3909,-908.2596"/>
</g>
<!-- 6 -->
<g id="node6" class="node">
<title>6</title>
<path fill="none" stroke="#61d856" stroke-width="2" d="M398,-468C398,-468 350,-468 350,-468 344,-468 338,-462 338,-456 338,-456 338,-444 338,-444 338,-438 344,-432 350,-432 350,-432 398,-432 398,-432 404,-432 410,-438 410,-444 410,-444 410,-456 410,-456 410,-462 404,-468 398,-468"/>
<text text-anchor="middle" x="374" y="-447.5" font-family="sans" font-size="10.00" fill="#000000">flye_asw47</text>
</g>
<!-- 6&#45;&gt;1 -->
<g id="edge6" class="edge">
<title>6&#45;&gt;1</title>
<path fill="none" stroke="#c0c0c0" stroke-width="2" d="M337.8111,-441.82C283.41,-429.3004 185.4583,-405.8081 172,-396 150.3113,-380.1938 134.6386,-353.5908 125.0946,-333.3963"/>
<polygon fill="#c0c0c0" stroke="#c0c0c0" stroke-width="2" points="128.1954,-331.7578 120.9022,-324.0728 121.8112,-334.6286 128.1954,-331.7578"/>
</g>
<!-- 6&#45;&gt;3 -->
<g id="edge14" class="edge">
<title>6&#45;&gt;3</title>
<path fill="none" stroke="#c0c0c0" stroke-width="2" d="M370.7717,-431.9045C367.0987,-413.3602 360.2483,-383.9335 350,-360 346.0617,-350.8027 340.7497,-341.3159 335.5396,-332.9093"/>
<polygon fill="#c0c0c0" stroke="#c0c0c0" stroke-width="2" points="338.3442,-330.7994 329.9958,-324.276 332.454,-334.5817 338.3442,-330.7994"/>
</g>
<!-- 9 -->
<g id="node9" class="node">
<title>9</title>
<path fill="none" stroke="#568ad8" stroke-width="2" d="M257.5,-396C257.5,-396 192.5,-396 192.5,-396 186.5,-396 180.5,-390 180.5,-384 180.5,-384 180.5,-372 180.5,-372 180.5,-366 186.5,-360 192.5,-360 192.5,-360 257.5,-360 257.5,-360 263.5,-360 269.5,-366 269.5,-372 269.5,-372 269.5,-384 269.5,-384 269.5,-390 263.5,-396 257.5,-396"/>
<text text-anchor="middle" x="225" y="-375.5" font-family="sans" font-size="10.00" fill="#000000">racon_illumina</text>
</g>
<!-- 6&#45;&gt;9 -->
<g id="edge24" class="edge">
<title>6&#45;&gt;9</title>
<path fill="none" stroke="#c0c0c0" stroke-width="2" d="M337.9313,-432.5708C317.9747,-422.9274 292.9517,-410.8357 271.5353,-400.4869"/>
<polygon fill="#c0c0c0" stroke="#c0c0c0" stroke-width="2" points="272.8193,-397.2202 262.2926,-396.0206 269.7737,-403.5229 272.8193,-397.2202"/>
</g>
<!-- 6&#45;&gt;17 -->
<g id="edge34" class="edge">
<title>6&#45;&gt;17</title>
<path fill="none" stroke="#c0c0c0" stroke-width="2" d="M388.8882,-431.8314C395.753,-423.454 404.0301,-413.3531 411.5511,-404.1749"/>
<polygon fill="#c0c0c0" stroke="#c0c0c0" stroke-width="2" points="414.2803,-406.3665 417.9114,-396.4133 408.8659,-401.9297 414.2803,-406.3665"/>
</g>
<!-- 7 -->
<g id="node7" class="node">
<title>7</title>
<path fill="none" stroke="#56d892" stroke-width="2" d="M542,-468C542,-468 478,-468 478,-468 472,-468 466,-462 466,-456 466,-456 466,-444 466,-444 466,-438 472,-432 478,-432 478,-432 542,-432 542,-432 548,-432 554,-438 554,-444 554,-444 554,-456 554,-456 554,-462 548,-468 542,-468"/>
<text text-anchor="middle" x="510" y="-447.5" font-family="sans" font-size="10.00" fill="#000000">flye_pool_only</text>
</g>
<!-- 7&#45;&gt;1 -->
<g id="edge1" class="edge">
<title>7&#45;&gt;1</title>
<path fill="none" stroke="#c0c0c0" stroke-width="2" d="M507.8689,-431.986C504.3951,-411.1973 495.4666,-377.618 473,-360 460.3575,-350.0859 240.054,-321.7011 150.9511,-310.5635"/>
<polygon fill="#c0c0c0" stroke="#c0c0c0" stroke-width="2" points="151.3615,-307.0877 141.0053,-309.3239 150.4957,-314.0339 151.3615,-307.0877"/>
</g>
<!-- 7&#45;&gt;3 -->
<g id="edge9" class="edge">
<title>7&#45;&gt;3</title>
<path fill="none" stroke="#c0c0c0" stroke-width="2" d="M514.9061,-431.6455C519.0327,-411.7862 521.9943,-380.2526 506,-360 497.5554,-349.3072 426.0892,-330.9394 373.5208,-318.6343"/>
<polygon fill="#c0c0c0" stroke="#c0c0c0" stroke-width="2" points="374.1467,-315.1866 363.6143,-316.3344 372.5636,-322.0053 374.1467,-315.1866"/>
</g>
<!-- 7&#45;&gt;17 -->
<g id="edge32" class="edge">
<title>7&#45;&gt;17</title>
<path fill="none" stroke="#c0c0c0" stroke-width="2" d="M490.5696,-431.8314C481.268,-423.1337 469.9796,-412.5783 459.8714,-403.1265"/>
<polygon fill="#c0c0c0" stroke="#c0c0c0" stroke-width="2" points="462.1189,-400.4363 452.4241,-396.1628 457.3379,-405.5493 462.1189,-400.4363"/>
</g>
<!-- 8 -->
<g id="node8" class="node">
<title>8</title>
<path fill="none" stroke="#d8bc56" stroke-width="2" d="M264.5,-468C264.5,-468 193.5,-468 193.5,-468 187.5,-468 181.5,-462 181.5,-456 181.5,-456 181.5,-444 181.5,-444 181.5,-438 187.5,-432 193.5,-432 193.5,-432 264.5,-432 264.5,-432 270.5,-432 276.5,-438 276.5,-444 276.5,-444 276.5,-456 276.5,-456 276.5,-462 270.5,-468 264.5,-468"/>
<text text-anchor="middle" x="229" y="-447.5" font-family="sans" font-size="10.00" fill="#000000">haplotigs_purge</text>
</g>
<!-- 8&#45;&gt;1 -->
<g id="edge4" class="edge">
<title>8&#45;&gt;1</title>
<path fill="none" stroke="#c0c0c0" stroke-width="2" d="M183.5193,-431.854C167.0423,-423.2281 149.6417,-411.3802 138,-396 124.5576,-378.2408 118.6325,-353.539 116.027,-334.506"/>
<polygon fill="#c0c0c0" stroke="#c0c0c0" stroke-width="2" points="119.4767,-333.8639 114.8695,-324.3232 112.5215,-334.6546 119.4767,-333.8639"/>
</g>
<!-- 8&#45;&gt;3 -->
<g id="edge12" class="edge">
<title>8&#45;&gt;3</title>
<path fill="none" stroke="#c0c0c0" stroke-width="2" d="M248.8077,-431.8672C258.7942,-421.9738 270.5461,-409.0959 279,-396 291.5734,-376.5227 301.5534,-352.1868 308.1248,-333.7334"/>
<polygon fill="#c0c0c0" stroke="#c0c0c0" stroke-width="2" points="311.4765,-334.7496 311.4198,-324.1549 304.8572,-332.4725 311.4765,-334.7496"/>
</g>
<!-- 8&#45;&gt;9 -->
<g id="edge23" class="edge">
<title>8&#45;&gt;9</title>
<path fill="none" stroke="#c0c0c0" stroke-width="2" d="M227.9906,-431.8314C227.5628,-424.131 227.0541,-414.9743 226.5787,-406.4166"/>
<polygon fill="#c0c0c0" stroke="#c0c0c0" stroke-width="2" points="230.0724,-406.2037 226.023,-396.4133 223.0831,-406.592 230.0724,-406.2037"/>
</g>
<!-- 8&#45;&gt;17 -->
<g id="edge33" class="edge">
<title>8&#45;&gt;17</title>
<path fill="none" stroke="#c0c0c0" stroke-width="2" d="M276.5715,-433.2101C311.7191,-420.805 359.0606,-404.0962 392.4272,-392.3198"/>
<polygon fill="#c0c0c0" stroke="#c0c0c0" stroke-width="2" points="393.6096,-395.6142 401.8746,-388.9854 391.2798,-389.0132 393.6096,-395.6142"/>
</g>
<!-- 9&#45;&gt;1 -->
<g id="edge3" class="edge">
<title>9&#45;&gt;1</title>
<path fill="none" stroke="#c0c0c0" stroke-width="2" d="M196.99,-359.8314C182.7091,-350.5681 165.1795,-339.1975 149.9166,-329.2972"/>
<polygon fill="#c0c0c0" stroke="#c0c0c0" stroke-width="2" points="151.5279,-326.1706 141.2336,-323.665 147.7185,-332.0434 151.5279,-326.1706"/>
</g>
<!-- 9&#45;&gt;3 -->
<g id="edge11" class="edge">
<title>9&#45;&gt;3</title>
<path fill="none" stroke="#c0c0c0" stroke-width="2" d="M248.2155,-359.8314C259.547,-350.9632 273.3464,-340.1637 285.6027,-330.5718"/>
<polygon fill="#c0c0c0" stroke="#c0c0c0" stroke-width="2" points="288.074,-333.0822 293.7919,-324.1628 283.7598,-327.5697 288.074,-333.0822"/>
</g>
<!-- 10 -->
<g id="node10" class="node">
<title>10</title>
<path fill="none" stroke="#56a2d8" stroke-width="2" d="M492.5,-108C492.5,-108 443.5,-108 443.5,-108 437.5,-108 431.5,-102 431.5,-96 431.5,-96 431.5,-84 431.5,-84 431.5,-78 437.5,-72 443.5,-72 443.5,-72 492.5,-72 492.5,-72 498.5,-72 504.5,-78 504.5,-84 504.5,-84 504.5,-96 504.5,-96 504.5,-102 498.5,-108 492.5,-108"/>
<text text-anchor="middle" x="468" y="-87.5" font-family="sans" font-size="10.00" fill="#000000">rm_classify</text>
</g>
<!-- 10&#45;&gt;2 -->
<g id="edge7" class="edge">
<title>10&#45;&gt;2</title>
<path fill="none" stroke="#c0c0c0" stroke-width="2" d="M459.6727,-71.8314C456.027,-63.8771 451.6691,-54.369 447.6373,-45.5723"/>
<polygon fill="#c0c0c0" stroke="#c0c0c0" stroke-width="2" points="450.7877,-44.0456 443.4394,-36.4133 444.4243,-46.9622 450.7877,-44.0456"/>
</g>
<!-- 11 -->
<g id="node11" class="node">
<title>11</title>
<path fill="none" stroke="#56b9d8" stroke-width="2" d="M448,-324C448,-324 418,-324 418,-324 412,-324 406,-318 406,-312 406,-312 406,-300 406,-300 406,-294 412,-288 418,-288 418,-288 448,-288 448,-288 454,-288 460,-294 460,-300 460,-300 460,-312 460,-312 460,-318 454,-324 448,-324"/>
<text text-anchor="middle" x="433" y="-303.5" font-family="sans" font-size="10.00" fill="#000000">rm_sort</text>
</g>
<!-- 11&#45;&gt;2 -->
<g id="edge8" class="edge">
<title>11&#45;&gt;2</title>
<path fill="none" stroke="#c0c0c0" stroke-width="2" d="M429.1907,-287.5974C427.2255,-277.199 425.0292,-263.9311 424,-252 417.1247,-172.2947 414.2705,-151.5235 423,-72 423.9284,-63.5425 425.6514,-54.4715 427.5078,-46.2246"/>
<polygon fill="#c0c0c0" stroke="#c0c0c0" stroke-width="2" points="430.9527,-46.8678 429.8809,-36.3273 424.1456,-45.2356 430.9527,-46.8678"/>
</g>
<!-- 20 -->
<g id="node20" class="node">
<title>20</title>
<path fill="none" stroke="#56d8a9" stroke-width="2" d="M479.5,-252C479.5,-252 444.5,-252 444.5,-252 438.5,-252 432.5,-246 432.5,-240 432.5,-240 432.5,-228 432.5,-228 432.5,-222 438.5,-216 444.5,-216 444.5,-216 479.5,-216 479.5,-216 485.5,-216 491.5,-222 491.5,-228 491.5,-228 491.5,-240 491.5,-240 491.5,-246 485.5,-252 479.5,-252"/>
<text text-anchor="middle" x="462" y="-231.5" font-family="sans" font-size="10.00" fill="#000000">rm_build</text>
</g>
<!-- 11&#45;&gt;20 -->
<g id="edge38" class="edge">
<title>11&#45;&gt;20</title>
<path fill="none" stroke="#c0c0c0" stroke-width="2" d="M440.3179,-287.8314C443.4876,-279.9617 447.27,-270.5712 450.7813,-261.8533"/>
<polygon fill="#c0c0c0" stroke="#c0c0c0" stroke-width="2" points="454.0939,-262.9968 454.5835,-252.4133 447.6008,-260.3815 454.0939,-262.9968"/>
</g>
<!-- 12 -->
<g id="node12" class="node">
<title>12</title>
<path fill="none" stroke="#5673d8" stroke-width="2" d="M404.5,-1044C404.5,-1044 305.5,-1044 305.5,-1044 299.5,-1044 293.5,-1038 293.5,-1032 293.5,-1032 293.5,-1020 293.5,-1020 293.5,-1014 299.5,-1008 305.5,-1008 305.5,-1008 404.5,-1008 404.5,-1008 410.5,-1008 416.5,-1014 416.5,-1020 416.5,-1020 416.5,-1032 416.5,-1032 416.5,-1038 410.5,-1044 404.5,-1044"/>
<text text-anchor="middle" x="355" y="-1023.5" font-family="sans" font-size="10.00" fill="#000000">remove_ont_adaptors</text>
</g>
<!-- 12&#45;&gt;4 -->
<g id="edge16" class="edge">
<title>12&#45;&gt;4</title>
<path fill="none" stroke="#c0c0c0" stroke-width="2" d="M343.7281,-1007.7623C328.2804,-982.7682 300.421,-937.6924 282.5891,-908.8409"/>
<polygon fill="#c0c0c0" stroke="#c0c0c0" stroke-width="2" points="285.4151,-906.7559 277.1804,-900.0896 279.4606,-910.4362 285.4151,-906.7559"/>
</g>
<!-- 12&#45;&gt;5 -->
<g id="edge17" class="edge">
<title>12&#45;&gt;5</title>
<path fill="none" stroke="#c0c0c0" stroke-width="2" d="M302.0281,-1007.9243C270.1666,-997.0521 229.7236,-983.2516 197.7277,-972.3336"/>
<polygon fill="#c0c0c0" stroke="#c0c0c0" stroke-width="2" points="198.6825,-968.9613 188.088,-969.0442 196.4218,-975.5862 198.6825,-968.9613"/>
</g>
<!-- 12&#45;&gt;6 -->
<g id="edge18" class="edge">
<title>12&#45;&gt;6</title>
<path fill="none" stroke="#c0c0c0" stroke-width="2" d="M364.5433,-1007.9269C377.7527,-981.1844 400,-929.1461 400,-882 400,-882 400,-882 400,-594 400,-553.2738 389.804,-507.0849 382.182,-478.2458"/>
<polygon fill="#c0c0c0" stroke="#c0c0c0" stroke-width="2" points="385.5185,-477.1771 379.5139,-468.4481 378.7644,-479.0164 385.5185,-477.1771"/>
</g>
<!-- 12&#45;&gt;7 -->
<g id="edge19" class="edge">
<title>12&#45;&gt;7</title>
<path fill="none" stroke="#c0c0c0" stroke-width="2" d="M385.5334,-1007.8039C421.3787,-983.8622 476,-938.1651 476,-882 476,-882 476,-882 476,-594 476,-552.8199 489.3332,-506.7455 499.3005,-478.0555"/>
<polygon fill="#c0c0c0" stroke="#c0c0c0" stroke-width="2" points="502.7129,-478.9079 502.7895,-468.3133 496.1227,-476.5477 502.7129,-478.9079"/>
</g>
<!-- 13&#45;&gt;8 -->
<g id="edge21" class="edge">
<title>13&#45;&gt;8</title>
<path fill="none" stroke="#c0c0c0" stroke-width="2" d="M233.8372,-791.7775C240.4335,-781.6539 248.0946,-768.591 253,-756 267.8408,-717.9072 272,-706.8816 272,-666 272,-666 272,-666 272,-594 272,-551.9897 254.9892,-505.8592 242.3661,-477.4108"/>
<polygon fill="#c0c0c0" stroke="#c0c0c0" stroke-width="2" points="245.4602,-475.7607 238.1192,-468.1214 239.094,-478.6713 245.4602,-475.7607"/>
</g>
<!-- 18 -->
<g id="node18" class="node">
<title>18</title>
<path fill="none" stroke="#d8d356" stroke-width="2" d="M188.5,-612C188.5,-612 127.5,-612 127.5,-612 121.5,-612 115.5,-606 115.5,-600 115.5,-600 115.5,-588 115.5,-588 115.5,-582 121.5,-576 127.5,-576 127.5,-576 188.5,-576 188.5,-576 194.5,-576 200.5,-582 200.5,-588 200.5,-588 200.5,-600 200.5,-600 200.5,-606 194.5,-612 188.5,-612"/>
<text text-anchor="middle" x="158" y="-591.5" font-family="sans" font-size="10.00" fill="#000000">haplotigs_hist</text>
</g>
<!-- 13&#45;&gt;18 -->
<g id="edge36" class="edge">
<title>13&#45;&gt;18</title>
<path fill="none" stroke="#c0c0c0" stroke-width="2" d="M182.3086,-791.9437C168.2133,-783.2204 153.8269,-771.2799 146,-756 124.0942,-713.2348 136.6613,-655.6383 147.5187,-621.8936"/>
<polygon fill="#c0c0c0" stroke="#c0c0c0" stroke-width="2" points="150.8989,-622.824 150.7933,-612.2297 144.2691,-620.5775 150.8989,-622.824"/>
</g>
<!-- 19 -->
<g id="node19" class="node">
<title>19</title>
<path fill="none" stroke="#d8a456" stroke-width="2" d="M231.5,-756C231.5,-756 166.5,-756 166.5,-756 160.5,-756 154.5,-750 154.5,-744 154.5,-744 154.5,-732 154.5,-732 154.5,-726 160.5,-720 166.5,-720 166.5,-720 231.5,-720 231.5,-720 237.5,-720 243.5,-726 243.5,-732 243.5,-732 243.5,-744 243.5,-744 243.5,-750 237.5,-756 231.5,-756"/>
<text text-anchor="middle" x="199" y="-735.5" font-family="sans" font-size="10.00" fill="#000000">haplotigs_map</text>
</g>
<!-- 13&#45;&gt;19 -->
<g id="edge37" class="edge">
<title>13&#45;&gt;19</title>
<path fill="none" stroke="#c0c0c0" stroke-width="2" d="M215.4485,-791.8314C213.0697,-784.0463 210.2362,-774.7729 207.5967,-766.1347"/>
<polygon fill="#c0c0c0" stroke="#c0c0c0" stroke-width="2" points="210.8958,-764.954 204.6263,-756.4133 204.2013,-766.9996 210.8958,-764.954"/>
</g>
<!-- 14 -->
<g id="node14" class="node">
<title>14</title>
<path fill="none" stroke="#97d856" stroke-width="2" d="M188,-540C188,-540 128,-540 128,-540 122,-540 116,-534 116,-528 116,-528 116,-516 116,-516 116,-510 122,-504 128,-504 128,-504 188,-504 188,-504 194,-504 200,-510 200,-516 200,-516 200,-528 200,-528 200,-534 194,-540 188,-540"/>
<text text-anchor="middle" x="158" y="-519.5" font-family="sans" font-size="10.00" fill="#000000">haplotigs_cov</text>
</g>
<!-- 14&#45;&gt;8 -->
<g id="edge22" class="edge">
<title>14&#45;&gt;8</title>
<path fill="none" stroke="#c0c0c0" stroke-width="2" d="M175.9163,-503.8314C184.3442,-495.2848 194.541,-484.9443 203.736,-475.6198"/>
<polygon fill="#c0c0c0" stroke="#c0c0c0" stroke-width="2" points="206.3131,-477.9912 210.8425,-468.4133 201.3289,-473.0761 206.3131,-477.9912"/>
</g>
<!-- 15 -->
<g id="node15" class="node">
<title>15</title>
<path fill="none" stroke="#d85656" stroke-width="2" d="M230,-684C230,-684 168,-684 168,-684 162,-684 156,-678 156,-672 156,-672 156,-660 156,-660 156,-654 162,-648 168,-648 168,-648 230,-648 230,-648 236,-648 242,-654 242,-660 242,-660 242,-672 242,-672 242,-678 236,-684 230,-684"/>
<text text-anchor="middle" x="199" y="-663.5" font-family="sans" font-size="10.00" fill="#000000">haplotigs_sort</text>
</g>
<!-- 15&#45;&gt;8 -->
<g id="edge20" class="edge">
<title>15&#45;&gt;8</title>
<path fill="none" stroke="#c0c0c0" stroke-width="2" d="M203.1537,-647.5759C205.3985,-637.1707 208.0931,-623.9033 210,-612 217.4856,-565.2741 223.2945,-510.521 226.426,-478.131"/>
<polygon fill="#c0c0c0" stroke="#c0c0c0" stroke-width="2" points="229.9224,-478.3339 227.384,-468.0477 222.9538,-477.6718 229.9224,-478.3339"/>
</g>
<!-- 15&#45;&gt;18 -->
<g id="edge35" class="edge">
<title>15&#45;&gt;18</title>
<path fill="none" stroke="#c0c0c0" stroke-width="2" d="M188.654,-647.8314C184.0763,-639.7925 178.5948,-630.1666 173.5412,-621.2918"/>
<polygon fill="#c0c0c0" stroke="#c0c0c0" stroke-width="2" points="176.4752,-619.3712 168.4853,-612.4133 170.3923,-622.8351 176.4752,-619.3712"/>
</g>
<!-- 16 -->
<g id="node16" class="node">
<title>16</title>
<path fill="none" stroke="#d88556" stroke-width="2" d="M487,-180C487,-180 445,-180 445,-180 439,-180 433,-174 433,-168 433,-168 433,-156 433,-156 433,-150 439,-144 445,-144 445,-144 487,-144 487,-144 493,-144 499,-150 499,-156 499,-156 499,-168 499,-168 499,-174 493,-180 487,-180"/>
<text text-anchor="middle" x="466" y="-159.5" font-family="sans" font-size="10.00" fill="#000000">rm_model</text>
</g>
<!-- 16&#45;&gt;10 -->
<g id="edge25" class="edge">
<title>16&#45;&gt;10</title>
<path fill="none" stroke="#c0c0c0" stroke-width="2" d="M466.5047,-143.8314C466.7186,-136.131 466.9729,-126.9743 467.2106,-118.4166"/>
<polygon fill="#c0c0c0" stroke="#c0c0c0" stroke-width="2" points="470.7094,-118.5066 467.4885,-108.4133 463.7121,-118.3122 470.7094,-118.5066"/>
</g>
<!-- 17&#45;&gt;11 -->
<g id="edge26" class="edge">
<title>17&#45;&gt;11</title>
<path fill="none" stroke="#c0c0c0" stroke-width="2" d="M433,-359.8314C433,-352.131 433,-342.9743 433,-334.4166"/>
<polygon fill="#c0c0c0" stroke="#c0c0c0" stroke-width="2" points="436.5001,-334.4132 433,-324.4133 429.5001,-334.4133 436.5001,-334.4132"/>
</g>
<!-- 18&#45;&gt;14 -->
<g id="edge28" class="edge">
<title>18&#45;&gt;14</title>
<path fill="none" stroke="#c0c0c0" stroke-width="2" d="M158,-575.8314C158,-568.131 158,-558.9743 158,-550.4166"/>
<polygon fill="#c0c0c0" stroke="#c0c0c0" stroke-width="2" points="161.5001,-550.4132 158,-540.4133 154.5001,-550.4133 161.5001,-550.4132"/>
</g>
<!-- 19&#45;&gt;15 -->
<g id="edge29" class="edge">
<title>19&#45;&gt;15</title>
<path fill="none" stroke="#c0c0c0" stroke-width="2" d="M199,-719.8314C199,-712.131 199,-702.9743 199,-694.4166"/>
<polygon fill="#c0c0c0" stroke="#c0c0c0" stroke-width="2" points="202.5001,-694.4132 199,-684.4133 195.5001,-694.4133 202.5001,-694.4132"/>
</g>
<!-- 20&#45;&gt;16 -->
<g id="edge30" class="edge">
<title>20&#45;&gt;16</title>
<path fill="none" stroke="#c0c0c0" stroke-width="2" d="M463.0094,-215.8314C463.4372,-208.131 463.9459,-198.9743 464.4213,-190.4166"/>
<polygon fill="#c0c0c0" stroke="#c0c0c0" stroke-width="2" points="467.9169,-190.592 464.977,-180.4133 460.9276,-190.2037 467.9169,-190.592"/>
</g>
</g>
</svg>
