<?xml version="1.0" encoding="UTF-8" standalone="no"?>
<!DOCTYPE svg PUBLIC "-//W3C//DTD SVG 1.1//EN"
 "http://www.w3.org/Graphics/SVG/1.1/DTD/svg11.dtd">
<!-- Generated by graphviz version 2.40.1 (20161225.0304)
 -->
<!-- Title: snakemake_dag Pages: 1 -->
<svg width="357pt" height="836pt"
 viewBox="0.00 0.00 357.26 836.00" xmlns="http://www.w3.org/2000/svg" xmlns:xlink="http://www.w3.org/1999/xlink">
<g id="graph0" class="graph" transform="scale(1 1) rotate(0) translate(4 832)">
<title>snakemake_dag</title>
<polygon fill="#ffffff" stroke="transparent" points="-4,4 -4,-832 353.256,-832 353.256,4 -4,4"/>
<!-- 0 -->
<g id="node1" class="node">
<title>0</title>
<path fill="none" stroke="#d85656" stroke-width="2" d="M232,-36C232,-36 202,-36 202,-36 196,-36 190,-30 190,-24 190,-24 190,-12 190,-12 190,-6 196,0 202,0 202,0 232,0 232,0 238,0 244,-6 244,-12 244,-12 244,-24 244,-24 244,-30 238,-36 232,-36"/>
<text text-anchor="middle" x="217" y="-15.5" font-family="sans" font-size="10.00" fill="#000000">target</text>
</g>
<!-- 1 -->
<g id="node2" class="node">
<title>1</title>
<path fill="none" stroke="#56d0d8" stroke-width="2" d="M232,-108C232,-108 202,-108 202,-108 196,-108 190,-102 190,-96 190,-96 190,-84 190,-84 190,-78 196,-72 202,-72 202,-72 232,-72 232,-72 238,-72 244,-78 244,-84 244,-84 244,-96 244,-96 244,-102 238,-108 232,-108"/>
<text text-anchor="middle" x="217" y="-87.5" font-family="sans" font-size="10.00" fill="#000000">busco</text>
</g>
<!-- 1&#45;&gt;0 -->
<g id="edge1" class="edge">
<title>1&#45;&gt;0</title>
<path fill="none" stroke="#c0c0c0" stroke-width="2" d="M217,-71.8314C217,-64.131 217,-54.9743 217,-46.4166"/>
<polygon fill="#c0c0c0" stroke="#c0c0c0" stroke-width="2" points="220.5001,-46.4132 217,-36.4133 213.5001,-46.4133 220.5001,-46.4132"/>
</g>
<!-- 2 -->
<g id="node3" class="node">
<title>2</title>
<path fill="none" stroke="#d87d56" stroke-width="2" d="M140,-684C140,-684 94,-684 94,-684 88,-684 82,-678 82,-672 82,-672 82,-660 82,-660 82,-654 88,-648 94,-648 94,-648 140,-648 140,-648 146,-648 152,-654 152,-660 152,-660 152,-672 152,-672 152,-678 146,-684 140,-684"/>
<text text-anchor="middle" x="117" y="-663.5" font-family="sans" font-size="10.00" fill="#000000">flye_polish</text>
</g>
<!-- 2&#45;&gt;1 -->
<g id="edge2" class="edge">
<title>2&#45;&gt;1</title>
<path fill="none" stroke="#c0c0c0" stroke-width="2" d="M88.0786,-647.978C53.4316,-623.897 0,-577.7263 0,-522 0,-522 0,-522 0,-234 0,-148.5549 118.2522,-110.7897 180.1688,-96.8721"/>
<polygon fill="#c0c0c0" stroke="#c0c0c0" stroke-width="2" points="180.9161,-100.2915 189.9556,-94.7654 179.4429,-93.4483 180.9161,-100.2915"/>
</g>
<!-- 8 -->
<g id="node9" class="node">
<title>8</title>
<path fill="none" stroke="#d8a456" stroke-width="2" d="M143,-612C143,-612 87,-612 87,-612 81,-612 75,-606 75,-600 75,-600 75,-588 75,-588 75,-582 81,-576 87,-576 87,-576 143,-576 143,-576 149,-576 155,-582 155,-588 155,-588 155,-600 155,-600 155,-606 149,-612 143,-612"/>
<text text-anchor="middle" x="115" y="-591.5" font-family="sans" font-size="10.00" fill="#000000">haplotigs_ref</text>
</g>
<!-- 2&#45;&gt;8 -->
<g id="edge16" class="edge">
<title>2&#45;&gt;8</title>
<path fill="none" stroke="#c0c0c0" stroke-width="2" d="M116.4953,-647.8314C116.2814,-640.131 116.0271,-630.9743 115.7894,-622.4166"/>
<polygon fill="#c0c0c0" stroke="#c0c0c0" stroke-width="2" points="119.2879,-622.3122 115.5115,-612.4133 112.2906,-622.5066 119.2879,-622.3122"/>
</g>
<!-- 3 -->
<g id="node4" class="node">
<title>3</title>
<path fill="none" stroke="#56a9d8" stroke-width="2" d="M244,-756C244,-756 180,-756 180,-756 174,-756 168,-750 168,-744 168,-744 168,-732 168,-732 168,-726 174,-720 180,-720 180,-720 244,-720 244,-720 250,-720 256,-726 256,-732 256,-732 256,-744 256,-744 256,-750 250,-756 244,-756"/>
<text text-anchor="middle" x="212" y="-735.5" font-family="sans" font-size="10.00" fill="#000000">flye_assemble</text>
</g>
<!-- 3&#45;&gt;1 -->
<g id="edge5" class="edge">
<title>3&#45;&gt;1</title>
<path fill="none" stroke="#c0c0c0" stroke-width="2" d="M214.072,-719.8427C217.0011,-692.5621 222,-639.359 222,-594 222,-594 222,-594 222,-306 222,-238.6834 219.5428,-159.5975 218.0735,-118.3255"/>
<polygon fill="#c0c0c0" stroke="#c0c0c0" stroke-width="2" points="221.5666,-118.0687 217.7058,-108.2024 214.5712,-118.3229 221.5666,-118.0687"/>
</g>
<!-- 3&#45;&gt;2 -->
<g id="edge7" class="edge">
<title>3&#45;&gt;2</title>
<path fill="none" stroke="#c0c0c0" stroke-width="2" d="M188.0275,-719.8314C176.2139,-710.8779 161.8028,-699.9558 149.0565,-690.2955"/>
<polygon fill="#c0c0c0" stroke="#c0c0c0" stroke-width="2" points="151.0486,-687.4137 140.9648,-684.1628 146.8205,-692.9925 151.0486,-687.4137"/>
</g>
<!-- 4 -->
<g id="node5" class="node">
<title>4</title>
<path fill="none" stroke="#8fd856" stroke-width="2" d="M314,-252C314,-252 266,-252 266,-252 260,-252 254,-246 254,-240 254,-240 254,-228 254,-228 254,-222 260,-216 266,-216 266,-216 314,-216 314,-216 320,-216 326,-222 326,-228 326,-228 326,-240 326,-240 326,-246 320,-252 314,-252"/>
<text text-anchor="middle" x="290" y="-231.5" font-family="sans" font-size="10.00" fill="#000000">flye_asw47</text>
</g>
<!-- 4&#45;&gt;1 -->
<g id="edge3" class="edge">
<title>4&#45;&gt;1</title>
<path fill="none" stroke="#c0c0c0" stroke-width="2" d="M313.8714,-215.782C334.9694,-197.3937 360.0842,-168.3167 344,-144 324.1954,-114.0586 284.0681,-100.6675 254.1917,-94.7101"/>
<polygon fill="#c0c0c0" stroke="#c0c0c0" stroke-width="2" points="254.5629,-91.2209 244.1017,-92.898 253.3255,-98.1107 254.5629,-91.2209"/>
</g>
<!-- 6 -->
<g id="node7" class="node">
<title>6</title>
<path fill="none" stroke="#56d892" stroke-width="2" d="M322.5,-180C322.5,-180 257.5,-180 257.5,-180 251.5,-180 245.5,-174 245.5,-168 245.5,-168 245.5,-156 245.5,-156 245.5,-150 251.5,-144 257.5,-144 257.5,-144 322.5,-144 322.5,-144 328.5,-144 334.5,-150 334.5,-156 334.5,-156 334.5,-168 334.5,-168 334.5,-174 328.5,-180 322.5,-180"/>
<text text-anchor="middle" x="290" y="-159.5" font-family="sans" font-size="10.00" fill="#000000">racon_illumina</text>
</g>
<!-- 4&#45;&gt;6 -->
<g id="edge14" class="edge">
<title>4&#45;&gt;6</title>
<path fill="none" stroke="#c0c0c0" stroke-width="2" d="M290,-215.8314C290,-208.131 290,-198.9743 290,-190.4166"/>
<polygon fill="#c0c0c0" stroke="#c0c0c0" stroke-width="2" points="293.5001,-190.4132 290,-180.4133 286.5001,-190.4133 293.5001,-190.4132"/>
</g>
<!-- 5 -->
<g id="node6" class="node">
<title>5</title>
<path fill="none" stroke="#567bd8" stroke-width="2" d="M181.5,-252C181.5,-252 110.5,-252 110.5,-252 104.5,-252 98.5,-246 98.5,-240 98.5,-240 98.5,-228 98.5,-228 98.5,-222 104.5,-216 110.5,-216 110.5,-216 181.5,-216 181.5,-216 187.5,-216 193.5,-222 193.5,-228 193.5,-228 193.5,-240 193.5,-240 193.5,-246 187.5,-252 181.5,-252"/>
<text text-anchor="middle" x="146" y="-231.5" font-family="sans" font-size="10.00" fill="#000000">haplotigs_purge</text>
</g>
<!-- 5&#45;&gt;1 -->
<g id="edge6" class="edge">
<title>5&#45;&gt;1</title>
<path fill="none" stroke="#c0c0c0" stroke-width="2" d="M154.9922,-215.7623C167.2623,-190.8764 189.3483,-146.0822 203.5808,-117.2165"/>
<polygon fill="#c0c0c0" stroke="#c0c0c0" stroke-width="2" points="206.7977,-118.6065 208.0808,-108.0896 200.5194,-115.5109 206.7977,-118.6065"/>
</g>
<!-- 5&#45;&gt;6 -->
<g id="edge15" class="edge">
<title>5&#45;&gt;6</title>
<path fill="none" stroke="#c0c0c0" stroke-width="2" d="M182.3373,-215.8314C201.3396,-206.3302 224.7758,-194.6121 244.9252,-184.5374"/>
<polygon fill="#c0c0c0" stroke="#c0c0c0" stroke-width="2" points="246.545,-187.6407 253.924,-180.038 243.4145,-181.3797 246.545,-187.6407"/>
</g>
<!-- 6&#45;&gt;1 -->
<g id="edge4" class="edge">
<title>6&#45;&gt;1</title>
<path fill="none" stroke="#c0c0c0" stroke-width="2" d="M271.579,-143.8314C262.8471,-135.219 252.2683,-124.7851 242.7577,-115.4048"/>
<polygon fill="#c0c0c0" stroke="#c0c0c0" stroke-width="2" points="244.9925,-112.6931 235.4151,-108.1628 240.077,-117.6769 244.9925,-112.6931"/>
</g>
<!-- 7 -->
<g id="node8" class="node">
<title>7</title>
<path fill="none" stroke="#68d856" stroke-width="2" d="M261.5,-828C261.5,-828 162.5,-828 162.5,-828 156.5,-828 150.5,-822 150.5,-816 150.5,-816 150.5,-804 150.5,-804 150.5,-798 156.5,-792 162.5,-792 162.5,-792 261.5,-792 261.5,-792 267.5,-792 273.5,-798 273.5,-804 273.5,-804 273.5,-816 273.5,-816 273.5,-822 267.5,-828 261.5,-828"/>
<text text-anchor="middle" x="212" y="-807.5" font-family="sans" font-size="10.00" fill="#000000">remove_ont_adaptors</text>
</g>
<!-- 7&#45;&gt;2 -->
<g id="edge8" class="edge">
<title>7&#45;&gt;2</title>
<path fill="none" stroke="#c0c0c0" stroke-width="2" d="M191.1447,-791.9275C180.5977,-782.0505 168.1326,-769.1692 159,-756 145.507,-736.5431 134.4047,-712.0639 127.0107,-693.5488"/>
<polygon fill="#c0c0c0" stroke="#c0c0c0" stroke-width="2" points="130.2678,-692.2675 123.3911,-684.2077 123.7407,-694.7967 130.2678,-692.2675"/>
</g>
<!-- 7&#45;&gt;3 -->
<g id="edge9" class="edge">
<title>7&#45;&gt;3</title>
<path fill="none" stroke="#c0c0c0" stroke-width="2" d="M212,-791.8314C212,-784.131 212,-774.9743 212,-766.4166"/>
<polygon fill="#c0c0c0" stroke="#c0c0c0" stroke-width="2" points="215.5001,-766.4132 212,-756.4133 208.5001,-766.4133 215.5001,-766.4132"/>
</g>
<!-- 7&#45;&gt;4 -->
<g id="edge10" class="edge">
<title>7&#45;&gt;4</title>
<path fill="none" stroke="#c0c0c0" stroke-width="2" d="M234.6972,-791.8579C245.3345,-782.2446 257.3262,-769.6187 265,-756 285.2672,-720.0315 288,-707.2855 288,-666 288,-666 288,-666 288,-378 288,-337.8721 288.7861,-291.4602 289.3726,-262.416"/>
<polygon fill="#c0c0c0" stroke="#c0c0c0" stroke-width="2" points="292.8766,-262.255 289.5856,-252.1843 285.8782,-262.1092 292.8766,-262.255"/>
</g>
<!-- 8&#45;&gt;5 -->
<g id="edge12" class="edge">
<title>8&#45;&gt;5</title>
<path fill="none" stroke="#c0c0c0" stroke-width="2" d="M136.629,-575.7589C146.7174,-566.1213 158.0127,-553.5035 165,-540 183.7878,-503.6912 184,-490.8816 184,-450 184,-450 184,-450 184,-378 184,-336.3681 168.9672,-290.14 157.8119,-261.567"/>
<polygon fill="#c0c0c0" stroke="#c0c0c0" stroke-width="2" points="161.0368,-260.2055 154.0588,-252.2332 154.5422,-262.817 161.0368,-260.2055"/>
</g>
<!-- 11 -->
<g id="node12" class="node">
<title>11</title>
<path fill="none" stroke="#b6d856" stroke-width="2" d="M105.5,-396C105.5,-396 44.5,-396 44.5,-396 38.5,-396 32.5,-390 32.5,-384 32.5,-384 32.5,-372 32.5,-372 32.5,-366 38.5,-360 44.5,-360 44.5,-360 105.5,-360 105.5,-360 111.5,-360 117.5,-366 117.5,-372 117.5,-372 117.5,-384 117.5,-384 117.5,-390 111.5,-396 105.5,-396"/>
<text text-anchor="middle" x="75" y="-375.5" font-family="sans" font-size="10.00" fill="#000000">haplotigs_hist</text>
</g>
<!-- 8&#45;&gt;11 -->
<g id="edge20" class="edge">
<title>8&#45;&gt;11</title>
<path fill="none" stroke="#c0c0c0" stroke-width="2" d="M87.5106,-575.7646C76.1152,-566.5451 64.1403,-554.2754 58,-540 39.0128,-495.8574 52.7212,-438.9418 64.0865,-405.6576"/>
<polygon fill="#c0c0c0" stroke="#c0c0c0" stroke-width="2" points="67.4231,-406.7216 67.4996,-396.127 60.8329,-404.3614 67.4231,-406.7216"/>
</g>
<!-- 12 -->
<g id="node13" class="node">
<title>12</title>
<path fill="none" stroke="#56d86b" stroke-width="2" d="M143.5,-540C143.5,-540 78.5,-540 78.5,-540 72.5,-540 66.5,-534 66.5,-528 66.5,-528 66.5,-516 66.5,-516 66.5,-510 72.5,-504 78.5,-504 78.5,-504 143.5,-504 143.5,-504 149.5,-504 155.5,-510 155.5,-516 155.5,-516 155.5,-528 155.5,-528 155.5,-534 149.5,-540 143.5,-540"/>
<text text-anchor="middle" x="111" y="-519.5" font-family="sans" font-size="10.00" fill="#000000">haplotigs_map</text>
</g>
<!-- 8&#45;&gt;12 -->
<g id="edge21" class="edge">
<title>8&#45;&gt;12</title>
<path fill="none" stroke="#c0c0c0" stroke-width="2" d="M113.9906,-575.8314C113.5628,-568.131 113.0541,-558.9743 112.5787,-550.4166"/>
<polygon fill="#c0c0c0" stroke="#c0c0c0" stroke-width="2" points="116.0724,-550.2037 112.023,-540.4133 109.0831,-550.592 116.0724,-550.2037"/>
</g>
<!-- 9 -->
<g id="node10" class="node">
<title>9</title>
<path fill="none" stroke="#d8cb56" stroke-width="2" d="M106,-324C106,-324 46,-324 46,-324 40,-324 34,-318 34,-312 34,-312 34,-300 34,-300 34,-294 40,-288 46,-288 46,-288 106,-288 106,-288 112,-288 118,-294 118,-300 118,-300 118,-312 118,-312 118,-318 112,-324 106,-324"/>
<text text-anchor="middle" x="76" y="-303.5" font-family="sans" font-size="10.00" fill="#000000">haplotigs_cov</text>
</g>
<!-- 9&#45;&gt;5 -->
<g id="edge13" class="edge">
<title>9&#45;&gt;5</title>
<path fill="none" stroke="#c0c0c0" stroke-width="2" d="M93.664,-287.8314C101.9732,-279.2848 112.0264,-268.9443 121.0918,-259.6198"/>
<polygon fill="#c0c0c0" stroke="#c0c0c0" stroke-width="2" points="123.6369,-262.023 128.0982,-252.4133 118.6179,-257.1435 123.6369,-262.023"/>
</g>
<!-- 10 -->
<g id="node11" class="node">
<title>10</title>
<path fill="none" stroke="#56d8b9" stroke-width="2" d="M142,-468C142,-468 80,-468 80,-468 74,-468 68,-462 68,-456 68,-456 68,-444 68,-444 68,-438 74,-432 80,-432 80,-432 142,-432 142,-432 148,-432 154,-438 154,-444 154,-444 154,-456 154,-456 154,-462 148,-468 142,-468"/>
<text text-anchor="middle" x="111" y="-447.5" font-family="sans" font-size="10.00" fill="#000000">haplotigs_sort</text>
</g>
<!-- 10&#45;&gt;5 -->
<g id="edge11" class="edge">
<title>10&#45;&gt;5</title>
<path fill="none" stroke="#c0c0c0" stroke-width="2" d="M117.2715,-431.7038C120.6087,-421.3386 124.5234,-408.0686 127,-396 136.5128,-349.6443 141.7023,-294.7781 144.1593,-262.2649"/>
<polygon fill="#c0c0c0" stroke="#c0c0c0" stroke-width="2" points="147.661,-262.3662 144.8901,-252.1401 140.6792,-261.8622 147.661,-262.3662"/>
</g>
<!-- 10&#45;&gt;11 -->
<g id="edge19" class="edge">
<title>10&#45;&gt;11</title>
<path fill="none" stroke="#c0c0c0" stroke-width="2" d="M101.9157,-431.8314C97.9385,-423.8771 93.1845,-414.369 88.7861,-405.5723"/>
<polygon fill="#c0c0c0" stroke="#c0c0c0" stroke-width="2" points="91.8093,-403.7923 84.2066,-396.4133 85.5483,-406.9228 91.8093,-403.7923"/>
</g>
<!-- 11&#45;&gt;9 -->
<g id="edge17" class="edge">
<title>11&#45;&gt;9</title>
<path fill="none" stroke="#c0c0c0" stroke-width="2" d="M75.2523,-359.8314C75.3593,-352.131 75.4865,-342.9743 75.6053,-334.4166"/>
<polygon fill="#c0c0c0" stroke="#c0c0c0" stroke-width="2" points="79.1049,-334.4609 75.7443,-324.4133 72.1056,-334.3637 79.1049,-334.4609"/>
</g>
<!-- 12&#45;&gt;10 -->
<g id="edge18" class="edge">
<title>12&#45;&gt;10</title>
<path fill="none" stroke="#c0c0c0" stroke-width="2" d="M111,-503.8314C111,-496.131 111,-486.9743 111,-478.4166"/>
<polygon fill="#c0c0c0" stroke="#c0c0c0" stroke-width="2" points="114.5001,-478.4132 111,-468.4133 107.5001,-478.4133 114.5001,-478.4132"/>
</g>
</g>
</svg>
