<?xml version="1.0" encoding="UTF-8" standalone="no"?>
<!DOCTYPE svg PUBLIC "-//W3C//DTD SVG 1.1//EN"
 "http://www.w3.org/Graphics/SVG/1.1/DTD/svg11.dtd">
<!-- Generated by graphviz version 2.40.1 (20161225.0304)
 -->
<!-- Title: snakemake_dag Pages: 1 -->
<svg width="576pt" height="1124pt"
 viewBox="0.00 0.00 576.00 1124.00" xmlns="http://www.w3.org/2000/svg" xmlns:xlink="http://www.w3.org/1999/xlink">
<g id="graph0" class="graph" transform="scale(1 1) rotate(0) translate(4 1120)">
<title>snakemake_dag</title>
<polygon fill="#ffffff" stroke="transparent" points="-4,4 -4,-1120 572,-1120 572,4 -4,4"/>
<!-- 0 -->
<g id="node1" class="node">
<title>0</title>
<path fill="none" stroke="#56d0d8" stroke-width="2" d="M281,-36C281,-36 251,-36 251,-36 245,-36 239,-30 239,-24 239,-24 239,-12 239,-12 239,-6 245,0 251,0 251,0 281,0 281,0 287,0 293,-6 293,-12 293,-12 293,-24 293,-24 293,-30 287,-36 281,-36"/>
<text text-anchor="middle" x="266" y="-15.5" font-family="sans" font-size="10.00" fill="#000000">target</text>
</g>
<!-- 1 -->
<g id="node2" class="node">
<title>1</title>
<path fill="none" stroke="#5673d8" stroke-width="2" d="M182,-396C182,-396 152,-396 152,-396 146,-396 140,-390 140,-384 140,-384 140,-372 140,-372 140,-366 146,-360 152,-360 152,-360 182,-360 182,-360 188,-360 194,-366 194,-372 194,-372 194,-384 194,-384 194,-390 188,-396 182,-396"/>
<text text-anchor="middle" x="167" y="-375.5" font-family="sans" font-size="10.00" fill="#000000">busco</text>
</g>
<!-- 1&#45;&gt;0 -->
<g id="edge2" class="edge">
<title>1&#45;&gt;0</title>
<path fill="none" stroke="#c0c0c0" stroke-width="2" d="M167.2072,-359.8149C167.5001,-332.4989 168,-279.2511 168,-234 168,-234 168,-234 168,-162 168,-113.6274 206.2626,-69.4833 234.9712,-43.1696"/>
<polygon fill="#c0c0c0" stroke="#c0c0c0" stroke-width="2" points="237.6269,-45.4918 242.7754,-36.2319 232.9761,-40.2601 237.6269,-45.4918"/>
</g>
<!-- 2 -->
<g id="node3" class="node">
<title>2</title>
<path fill="none" stroke="#56d87b" stroke-width="2" d="M285,-108C285,-108 247,-108 247,-108 241,-108 235,-102 235,-96 235,-96 235,-84 235,-84 235,-78 241,-72 247,-72 247,-72 285,-72 285,-72 291,-72 297,-78 297,-84 297,-84 297,-96 297,-96 297,-102 291,-108 285,-108"/>
<text text-anchor="middle" x="266" y="-87.5" font-family="sans" font-size="10.00" fill="#000000">rm_mask</text>
</g>
<!-- 2&#45;&gt;0 -->
<g id="edge1" class="edge">
<title>2&#45;&gt;0</title>
<path fill="none" stroke="#c0c0c0" stroke-width="2" d="M266,-71.8314C266,-64.131 266,-54.9743 266,-46.4166"/>
<polygon fill="#c0c0c0" stroke="#c0c0c0" stroke-width="2" points="269.5001,-46.4132 266,-36.4133 262.5001,-46.4133 269.5001,-46.4132"/>
</g>
<!-- 3 -->
<g id="node4" class="node">
<title>3</title>
<path fill="none" stroke="#97d856" stroke-width="2" d="M453.5,-396C453.5,-396 384.5,-396 384.5,-396 378.5,-396 372.5,-390 372.5,-384 372.5,-384 372.5,-372 372.5,-372 372.5,-366 378.5,-360 384.5,-360 384.5,-360 453.5,-360 453.5,-360 459.5,-360 465.5,-366 465.5,-372 465.5,-372 465.5,-384 465.5,-384 465.5,-390 459.5,-396 453.5,-396"/>
<text text-anchor="middle" x="419" y="-375.5" font-family="sans" font-size="10.00" fill="#000000">assembly_stats</text>
</g>
<!-- 3&#45;&gt;0 -->
<g id="edge3" class="edge">
<title>3&#45;&gt;0</title>
<path fill="none" stroke="#c0c0c0" stroke-width="2" d="M413.274,-359.5668C405.3484,-332.3758 392,-279.7842 392,-234 392,-234 392,-234 392,-162 392,-106.7971 338.9071,-62.5845 301.6499,-38.3549"/>
<polygon fill="#c0c0c0" stroke="#c0c0c0" stroke-width="2" points="303.3554,-35.2926 293.0302,-32.9175 299.6206,-41.213 303.3554,-35.2926"/>
</g>
<!-- 4 -->
<g id="node5" class="node">
<title>4</title>
<path fill="none" stroke="#56d892" stroke-width="2" d="M243,-972C243,-972 197,-972 197,-972 191,-972 185,-966 185,-960 185,-960 185,-948 185,-948 185,-942 191,-936 197,-936 197,-936 243,-936 243,-936 249,-936 255,-942 255,-948 255,-948 255,-960 255,-960 255,-966 249,-972 243,-972"/>
<text text-anchor="middle" x="220" y="-951.5" font-family="sans" font-size="10.00" fill="#000000">flye_polish</text>
</g>
<!-- 4&#45;&gt;1 -->
<g id="edge8" class="edge">
<title>4&#45;&gt;1</title>
<path fill="none" stroke="#c0c0c0" stroke-width="2" d="M184.7736,-937.8855C142.1426,-915.6792 76,-871.3415 76,-810 76,-810 76,-810 76,-522 76,-474.4235 111.9367,-429.776 138.6436,-403.1645"/>
<polygon fill="#c0c0c0" stroke="#c0c0c0" stroke-width="2" points="141.1409,-405.6184 145.894,-396.1496 136.2735,-400.5876 141.1409,-405.6184"/>
</g>
<!-- 4&#45;&gt;3 -->
<g id="edge16" class="edge">
<title>4&#45;&gt;3</title>
<path fill="none" stroke="#c0c0c0" stroke-width="2" d="M255.2584,-949.3065C296.9425,-942.7139 367.527,-928.2194 422,-900 477.4794,-871.2592 530,-872.482 530,-810 530,-810 530,-810 530,-522 530,-478.0449 516.3159,-466.4368 489,-432 480.0197,-420.6787 468.1771,-410.381 456.792,-401.8852"/>
<polygon fill="#c0c0c0" stroke="#c0c0c0" stroke-width="2" points="458.7955,-399.0149 448.6302,-396.0285 454.7144,-404.7022 458.7955,-399.0149"/>
</g>
<!-- 13 -->
<g id="node14" class="node">
<title>13</title>
<path fill="none" stroke="#78d856" stroke-width="2" d="M401,-900C401,-900 345,-900 345,-900 339,-900 333,-894 333,-888 333,-888 333,-876 333,-876 333,-870 339,-864 345,-864 345,-864 401,-864 401,-864 407,-864 413,-870 413,-876 413,-876 413,-888 413,-888 413,-894 407,-900 401,-900"/>
<text text-anchor="middle" x="373" y="-879.5" font-family="sans" font-size="10.00" fill="#000000">haplotigs_ref</text>
</g>
<!-- 4&#45;&gt;13 -->
<g id="edge30" class="edge">
<title>4&#45;&gt;13</title>
<path fill="none" stroke="#c0c0c0" stroke-width="2" d="M255.1013,-937.4817C275.9598,-927.666 302.6943,-915.085 325.4304,-904.3857"/>
<polygon fill="#c0c0c0" stroke="#c0c0c0" stroke-width="2" points="327.0166,-907.5075 334.5745,-900.0826 324.036,-901.1738 327.0166,-907.5075"/>
</g>
<!-- 17 -->
<g id="node18" class="node">
<title>17</title>
<path fill="none" stroke="#d86e56" stroke-width="2" d="M230,-468C230,-468 192,-468 192,-468 186,-468 180,-462 180,-456 180,-456 180,-444 180,-444 180,-438 186,-432 192,-432 192,-432 230,-432 230,-432 236,-432 242,-438 242,-444 242,-444 242,-456 242,-456 242,-462 236,-468 230,-468"/>
<text text-anchor="middle" x="211" y="-447.5" font-family="sans" font-size="10.00" fill="#000000">rm_clean</text>
</g>
<!-- 4&#45;&gt;17 -->
<g id="edge37" class="edge">
<title>4&#45;&gt;17</title>
<path fill="none" stroke="#c0c0c0" stroke-width="2" d="M220,-935.8146C220,-908.4983 220,-855.25 220,-810 220,-810 220,-810 220,-594 220,-553.7977 216.4625,-507.4047 213.8232,-478.385"/>
<polygon fill="#c0c0c0" stroke="#c0c0c0" stroke-width="2" points="217.283,-477.7923 212.8648,-468.1626 210.3136,-478.4457 217.283,-477.7923"/>
</g>
<!-- 5 -->
<g id="node6" class="node">
<title>5</title>
<path fill="none" stroke="#d88556" stroke-width="2" d="M193,-1044C193,-1044 129,-1044 129,-1044 123,-1044 117,-1038 117,-1032 117,-1032 117,-1020 117,-1020 117,-1014 123,-1008 129,-1008 129,-1008 193,-1008 193,-1008 199,-1008 205,-1014 205,-1020 205,-1020 205,-1032 205,-1032 205,-1038 199,-1044 193,-1044"/>
<text text-anchor="middle" x="161" y="-1023.5" font-family="sans" font-size="10.00" fill="#000000">flye_assemble</text>
</g>
<!-- 5&#45;&gt;1 -->
<g id="edge5" class="edge">
<title>5&#45;&gt;1</title>
<path fill="none" stroke="#c0c0c0" stroke-width="2" d="M129.9619,-1007.9286C93.5242,-984.1156 38,-938.5511 38,-882 38,-882 38,-882 38,-522 38,-465.9126 92.9643,-421.6916 131.1373,-397.7431"/>
<polygon fill="#c0c0c0" stroke="#c0c0c0" stroke-width="2" points="133.2323,-400.5654 139.9574,-392.3786 129.5948,-394.5848 133.2323,-400.5654"/>
</g>
<!-- 5&#45;&gt;3 -->
<g id="edge13" class="edge">
<title>5&#45;&gt;3</title>
<path fill="none" stroke="#c0c0c0" stroke-width="2" d="M205.3309,-1019.9376C310.8164,-1004.2737 568,-958.2636 568,-882 568,-882 568,-882 568,-522 568,-465.7444 512.4029,-424.4846 469.1315,-400.8912"/>
<polygon fill="#c0c0c0" stroke="#c0c0c0" stroke-width="2" points="470.5863,-397.7014 460.1093,-396.1257 467.317,-403.8911 470.5863,-397.7014"/>
</g>
<!-- 5&#45;&gt;4 -->
<g id="edge19" class="edge">
<title>5&#45;&gt;4</title>
<path fill="none" stroke="#c0c0c0" stroke-width="2" d="M175.8882,-1007.8314C182.753,-999.454 191.0301,-989.3531 198.5511,-980.1749"/>
<polygon fill="#c0c0c0" stroke="#c0c0c0" stroke-width="2" points="201.2803,-982.3665 204.9114,-972.4133 195.8659,-977.9297 201.2803,-982.3665"/>
</g>
<!-- 6 -->
<g id="node7" class="node">
<title>6</title>
<path fill="none" stroke="#d8a456" stroke-width="2" d="M308,-540C308,-540 260,-540 260,-540 254,-540 248,-534 248,-528 248,-528 248,-516 248,-516 248,-510 254,-504 260,-504 260,-504 308,-504 308,-504 314,-504 320,-510 320,-516 320,-516 320,-528 320,-528 320,-534 314,-540 308,-540"/>
<text text-anchor="middle" x="284" y="-519.5" font-family="sans" font-size="10.00" fill="#000000">flye_asw47</text>
</g>
<!-- 6&#45;&gt;1 -->
<g id="edge9" class="edge">
<title>6&#45;&gt;1</title>
<path fill="none" stroke="#c0c0c0" stroke-width="2" d="M280.8893,-503.7366C276.8088,-484.2456 268.0651,-453.3003 251,-432 243.9499,-423.2002 222.3769,-409.4011 202.86,-397.9552"/>
<polygon fill="#c0c0c0" stroke="#c0c0c0" stroke-width="2" points="204.506,-394.864 194.097,-392.8883 201.002,-400.9239 204.506,-394.864"/>
</g>
<!-- 6&#45;&gt;3 -->
<g id="edge17" class="edge">
<title>6&#45;&gt;3</title>
<path fill="none" stroke="#c0c0c0" stroke-width="2" d="M300.1418,-503.8901C316.5403,-485.5859 342.762,-456.5728 366,-432 374.8847,-422.6049 384.7731,-412.4508 393.5797,-403.5105"/>
<polygon fill="#c0c0c0" stroke="#c0c0c0" stroke-width="2" points="396.1368,-405.9022 400.6769,-396.3294 391.1581,-400.9816 396.1368,-405.9022"/>
</g>
<!-- 9 -->
<g id="node10" class="node">
<title>9</title>
<path fill="none" stroke="#c6d856" stroke-width="2" d="M451.5,-468C451.5,-468 386.5,-468 386.5,-468 380.5,-468 374.5,-462 374.5,-456 374.5,-456 374.5,-444 374.5,-444 374.5,-438 380.5,-432 386.5,-432 386.5,-432 451.5,-432 451.5,-432 457.5,-432 463.5,-438 463.5,-444 463.5,-444 463.5,-456 463.5,-456 463.5,-462 457.5,-468 451.5,-468"/>
<text text-anchor="middle" x="419" y="-447.5" font-family="sans" font-size="10.00" fill="#000000">racon_illumina</text>
</g>
<!-- 6&#45;&gt;9 -->
<g id="edge26" class="edge">
<title>6&#45;&gt;9</title>
<path fill="none" stroke="#c0c0c0" stroke-width="2" d="M318.0662,-503.8314C335.6533,-494.4516 357.2916,-482.9112 376.0168,-472.9244"/>
<polygon fill="#c0c0c0" stroke="#c0c0c0" stroke-width="2" points="377.7682,-475.957 384.9447,-468.1628 374.4741,-469.7805 377.7682,-475.957"/>
</g>
<!-- 6&#45;&gt;17 -->
<g id="edge35" class="edge">
<title>6&#45;&gt;17</title>
<path fill="none" stroke="#c0c0c0" stroke-width="2" d="M265.579,-503.8314C256.8471,-495.219 246.2683,-484.7851 236.7577,-475.4048"/>
<polygon fill="#c0c0c0" stroke="#c0c0c0" stroke-width="2" points="238.9925,-472.6931 229.4151,-468.1628 234.077,-477.6769 238.9925,-472.6931"/>
</g>
<!-- 7 -->
<g id="node8" class="node">
<title>7</title>
<path fill="none" stroke="#d85656" stroke-width="2" d="M180,-540C180,-540 116,-540 116,-540 110,-540 104,-534 104,-528 104,-528 104,-516 104,-516 104,-510 110,-504 116,-504 116,-504 180,-504 180,-504 186,-504 192,-510 192,-516 192,-516 192,-528 192,-528 192,-534 186,-540 180,-540"/>
<text text-anchor="middle" x="148" y="-519.5" font-family="sans" font-size="10.00" fill="#000000">flye_pool_only</text>
</g>
<!-- 7&#45;&gt;1 -->
<g id="edge4" class="edge">
<title>7&#45;&gt;1</title>
<path fill="none" stroke="#c0c0c0" stroke-width="2" d="M142.2474,-503.8147C137.3044,-485.4518 131.8642,-456.394 138,-432 140.3386,-422.7024 144.623,-413.2609 149.1938,-404.9283"/>
<polygon fill="#c0c0c0" stroke="#c0c0c0" stroke-width="2" points="152.3549,-406.4564 154.3878,-396.0585 146.3143,-402.9192 152.3549,-406.4564"/>
</g>
<!-- 7&#45;&gt;3 -->
<g id="edge12" class="edge">
<title>7&#45;&gt;3</title>
<path fill="none" stroke="#c0c0c0" stroke-width="2" d="M147.379,-503.7105C147.7358,-483.3021 151.6181,-450.7001 171,-432 197.8649,-406.0802 297.8061,-390.8158 362.323,-383.4565"/>
<polygon fill="#c0c0c0" stroke="#c0c0c0" stroke-width="2" points="362.804,-386.9247 372.3568,-382.3428 362.0317,-379.9674 362.804,-386.9247"/>
</g>
<!-- 7&#45;&gt;17 -->
<g id="edge34" class="edge">
<title>7&#45;&gt;17</title>
<path fill="none" stroke="#c0c0c0" stroke-width="2" d="M163.8976,-503.8314C171.2278,-495.454 180.066,-485.3531 188.0969,-476.1749"/>
<polygon fill="#c0c0c0" stroke="#c0c0c0" stroke-width="2" points="190.9373,-478.2438 194.8884,-468.4133 185.6693,-473.6343 190.9373,-478.2438"/>
</g>
<!-- 8 -->
<g id="node9" class="node">
<title>8</title>
<path fill="none" stroke="#afd856" stroke-width="2" d="M422.5,-540C422.5,-540 351.5,-540 351.5,-540 345.5,-540 339.5,-534 339.5,-528 339.5,-528 339.5,-516 339.5,-516 339.5,-510 345.5,-504 351.5,-504 351.5,-504 422.5,-504 422.5,-504 428.5,-504 434.5,-510 434.5,-516 434.5,-516 434.5,-528 434.5,-528 434.5,-534 428.5,-540 422.5,-540"/>
<text text-anchor="middle" x="387" y="-519.5" font-family="sans" font-size="10.00" fill="#000000">haplotigs_purge</text>
</g>
<!-- 8&#45;&gt;1 -->
<g id="edge7" class="edge">
<title>8&#45;&gt;1</title>
<path fill="none" stroke="#c0c0c0" stroke-width="2" d="M366.9467,-503.6878C345.2727,-484.4356 309.2251,-453.9508 275,-432 274.7842,-431.8616 234.4462,-411.6994 203.137,-396.0547"/>
<polygon fill="#c0c0c0" stroke="#c0c0c0" stroke-width="2" points="204.6863,-392.9162 194.1764,-391.5774 201.5574,-399.1781 204.6863,-392.9162"/>
</g>
<!-- 8&#45;&gt;3 -->
<g id="edge15" class="edge">
<title>8&#45;&gt;3</title>
<path fill="none" stroke="#c0c0c0" stroke-width="2" d="M433.4754,-503.9715C448.879,-495.5066 464.2991,-483.7373 473,-468 480.7417,-453.9976 479.1229,-446.7821 473,-432 468.4479,-421.0103 460.454,-411.0911 451.9898,-402.8418"/>
<polygon fill="#c0c0c0" stroke="#c0c0c0" stroke-width="2" points="454.2589,-400.1745 444.5052,-396.0373 449.5501,-405.354 454.2589,-400.1745"/>
</g>
<!-- 8&#45;&gt;9 -->
<g id="edge27" class="edge">
<title>8&#45;&gt;9</title>
<path fill="none" stroke="#c0c0c0" stroke-width="2" d="M395.075,-503.8314C398.6102,-495.8771 402.836,-486.369 406.7456,-477.5723"/>
<polygon fill="#c0c0c0" stroke="#c0c0c0" stroke-width="2" points="409.9532,-478.9729 410.8163,-468.4133 403.5565,-476.1299 409.9532,-478.9729"/>
</g>
<!-- 8&#45;&gt;17 -->
<g id="edge36" class="edge">
<title>8&#45;&gt;17</title>
<path fill="none" stroke="#c0c0c0" stroke-width="2" d="M342.5878,-503.8314C314.6537,-492.4038 278.8802,-477.7692 251.6858,-466.6442"/>
<polygon fill="#c0c0c0" stroke="#c0c0c0" stroke-width="2" points="252.6661,-463.2637 242.0854,-462.7168 250.0156,-469.7426 252.6661,-463.2637"/>
</g>
<!-- 9&#45;&gt;1 -->
<g id="edge6" class="edge">
<title>9&#45;&gt;1</title>
<path fill="none" stroke="#c0c0c0" stroke-width="2" d="M374.2945,-441.801C332.1683,-433.4202 267.3564,-418.8369 203.987,-395.9789"/>
<polygon fill="#c0c0c0" stroke="#c0c0c0" stroke-width="2" points="204.836,-392.5619 194.2425,-392.3929 202.4184,-399.1312 204.836,-392.5619"/>
</g>
<!-- 9&#45;&gt;3 -->
<g id="edge14" class="edge">
<title>9&#45;&gt;3</title>
<path fill="none" stroke="#c0c0c0" stroke-width="2" d="M419,-431.8314C419,-424.131 419,-414.9743 419,-406.4166"/>
<polygon fill="#c0c0c0" stroke="#c0c0c0" stroke-width="2" points="422.5001,-406.4132 419,-396.4133 415.5001,-406.4133 422.5001,-406.4132"/>
</g>
<!-- 10 -->
<g id="node11" class="node">
<title>10</title>
<path fill="none" stroke="#d8d356" stroke-width="2" d="M258.5,-180C258.5,-180 209.5,-180 209.5,-180 203.5,-180 197.5,-174 197.5,-168 197.5,-168 197.5,-156 197.5,-156 197.5,-150 203.5,-144 209.5,-144 209.5,-144 258.5,-144 258.5,-144 264.5,-144 270.5,-150 270.5,-156 270.5,-156 270.5,-168 270.5,-168 270.5,-174 264.5,-180 258.5,-180"/>
<text text-anchor="middle" x="234" y="-159.5" font-family="sans" font-size="10.00" fill="#000000">rm_classify</text>
</g>
<!-- 10&#45;&gt;2 -->
<g id="edge10" class="edge">
<title>10&#45;&gt;2</title>
<path fill="none" stroke="#c0c0c0" stroke-width="2" d="M242.075,-143.8314C245.6102,-135.8771 249.836,-126.369 253.7456,-117.5723"/>
<polygon fill="#c0c0c0" stroke="#c0c0c0" stroke-width="2" points="256.9532,-118.9729 257.8163,-108.4133 250.5565,-116.1299 256.9532,-118.9729"/>
</g>
<!-- 11 -->
<g id="node12" class="node">
<title>11</title>
<path fill="none" stroke="#56d8c9" stroke-width="2" d="M254,-396C254,-396 224,-396 224,-396 218,-396 212,-390 212,-384 212,-384 212,-372 212,-372 212,-366 218,-360 224,-360 224,-360 254,-360 254,-360 260,-360 266,-366 266,-372 266,-372 266,-384 266,-384 266,-390 260,-396 254,-396"/>
<text text-anchor="middle" x="239" y="-375.5" font-family="sans" font-size="10.00" fill="#000000">rm_sort</text>
</g>
<!-- 11&#45;&gt;2 -->
<g id="edge11" class="edge">
<title>11&#45;&gt;2</title>
<path fill="none" stroke="#c0c0c0" stroke-width="2" d="M254.766,-359.8464C262.368,-349.9473 270.7435,-337.0706 275,-324 299.7779,-247.9131 288.4302,-223.4621 279,-144 277.9932,-135.5166 276.1264,-126.4376 274.1153,-118.1913"/>
<polygon fill="#c0c0c0" stroke="#c0c0c0" stroke-width="2" points="277.4472,-117.0971 271.5446,-108.2988 270.6722,-118.8576 277.4472,-117.0971"/>
</g>
<!-- 20 -->
<g id="node21" class="node">
<title>20</title>
<path fill="none" stroke="#56b9d8" stroke-width="2" d="M254.5,-324C254.5,-324 219.5,-324 219.5,-324 213.5,-324 207.5,-318 207.5,-312 207.5,-312 207.5,-300 207.5,-300 207.5,-294 213.5,-288 219.5,-288 219.5,-288 254.5,-288 254.5,-288 260.5,-288 266.5,-294 266.5,-300 266.5,-300 266.5,-312 266.5,-312 266.5,-318 260.5,-324 254.5,-324"/>
<text text-anchor="middle" x="237" y="-303.5" font-family="sans" font-size="10.00" fill="#000000">rm_build</text>
</g>
<!-- 11&#45;&gt;20 -->
<g id="edge41" class="edge">
<title>11&#45;&gt;20</title>
<path fill="none" stroke="#c0c0c0" stroke-width="2" d="M238.4953,-359.8314C238.2814,-352.131 238.0271,-342.9743 237.7894,-334.4166"/>
<polygon fill="#c0c0c0" stroke="#c0c0c0" stroke-width="2" points="241.2879,-334.3122 237.5115,-324.4133 234.2906,-334.5066 241.2879,-334.3122"/>
</g>
<!-- 12 -->
<g id="node13" class="node">
<title>12</title>
<path fill="none" stroke="#56d8a9" stroke-width="2" d="M246.5,-1116C246.5,-1116 147.5,-1116 147.5,-1116 141.5,-1116 135.5,-1110 135.5,-1104 135.5,-1104 135.5,-1092 135.5,-1092 135.5,-1086 141.5,-1080 147.5,-1080 147.5,-1080 246.5,-1080 246.5,-1080 252.5,-1080 258.5,-1086 258.5,-1092 258.5,-1092 258.5,-1104 258.5,-1104 258.5,-1110 252.5,-1116 246.5,-1116"/>
<text text-anchor="middle" x="197" y="-1095.5" font-family="sans" font-size="10.00" fill="#000000">remove_ont_adaptors</text>
</g>
<!-- 12&#45;&gt;4 -->
<g id="edge18" class="edge">
<title>12&#45;&gt;4</title>
<path fill="none" stroke="#c0c0c0" stroke-width="2" d="M203.9295,-1079.7829C207.5585,-1069.4425 211.7125,-1056.1709 214,-1044 217.8507,-1023.5118 219.3191,-999.9943 219.8415,-982.1385"/>
<polygon fill="#c0c0c0" stroke="#c0c0c0" stroke-width="2" points="223.3417,-982.16 220.054,-972.0882 216.3433,-982.0119 223.3417,-982.16"/>
</g>
<!-- 12&#45;&gt;5 -->
<g id="edge20" class="edge">
<title>12&#45;&gt;5</title>
<path fill="none" stroke="#c0c0c0" stroke-width="2" d="M187.9157,-1079.8314C183.9385,-1071.8771 179.1845,-1062.369 174.7861,-1053.5723"/>
<polygon fill="#c0c0c0" stroke="#c0c0c0" stroke-width="2" points="177.8093,-1051.7923 170.2066,-1044.4133 171.5483,-1054.9228 177.8093,-1051.7923"/>
</g>
<!-- 12&#45;&gt;6 -->
<g id="edge21" class="edge">
<title>12&#45;&gt;6</title>
<path fill="none" stroke="#c0c0c0" stroke-width="2" d="M216.9463,-1079.6161C242.3516,-1054.0935 283,-1005.2496 283,-954 283,-954 283,-954 283,-666 283,-625.875 283.3931,-579.4624 283.6863,-550.4173"/>
<polygon fill="#c0c0c0" stroke="#c0c0c0" stroke-width="2" points="287.1885,-550.221 283.7928,-540.1851 280.1888,-550.1481 287.1885,-550.221"/>
</g>
<!-- 12&#45;&gt;7 -->
<g id="edge22" class="edge">
<title>12&#45;&gt;7</title>
<path fill="none" stroke="#c0c0c0" stroke-width="2" d="M135.4783,-1081.3126C77.6763,-1061.455 0,-1022.1006 0,-954 0,-954 0,-954 0,-738 0,-656.4761 72.6316,-583.1705 116.1324,-546.577"/>
<polygon fill="#c0c0c0" stroke="#c0c0c0" stroke-width="2" points="118.4039,-549.2404 123.8919,-540.1777 113.9501,-543.84 118.4039,-549.2404"/>
</g>
<!-- 13&#45;&gt;8 -->
<g id="edge25" class="edge">
<title>13&#45;&gt;8</title>
<path fill="none" stroke="#c0c0c0" stroke-width="2" d="M360.2161,-863.7566C353.6354,-853.6269 345.9722,-840.5648 341,-828 325.9226,-789.899 321,-778.9758 321,-738 321,-738 321,-738 321,-666 321,-621.829 346.9805,-576.3999 366.3407,-548.6791"/>
<polygon fill="#c0c0c0" stroke="#c0c0c0" stroke-width="2" points="369.3522,-550.4863 372.3525,-540.3251 363.6705,-546.3975 369.3522,-550.4863"/>
</g>
<!-- 18 -->
<g id="node19" class="node">
<title>18</title>
<path fill="none" stroke="#568ad8" stroke-width="2" d="M488.5,-684C488.5,-684 427.5,-684 427.5,-684 421.5,-684 415.5,-678 415.5,-672 415.5,-672 415.5,-660 415.5,-660 415.5,-654 421.5,-648 427.5,-648 427.5,-648 488.5,-648 488.5,-648 494.5,-648 500.5,-654 500.5,-660 500.5,-660 500.5,-672 500.5,-672 500.5,-678 494.5,-684 488.5,-684"/>
<text text-anchor="middle" x="458" y="-663.5" font-family="sans" font-size="10.00" fill="#000000">haplotigs_hist</text>
</g>
<!-- 13&#45;&gt;18 -->
<g id="edge39" class="edge">
<title>13&#45;&gt;18</title>
<path fill="none" stroke="#c0c0c0" stroke-width="2" d="M410.8235,-863.936C424.972,-855.1533 439.6284,-843.1719 448,-828 471.0941,-786.1465 467.9723,-728.6253 463.2381,-694.5796"/>
<polygon fill="#c0c0c0" stroke="#c0c0c0" stroke-width="2" points="466.6523,-693.7535 461.6755,-684.4003 459.7334,-694.8156 466.6523,-693.7535"/>
</g>
<!-- 19 -->
<g id="node20" class="node">
<title>19</title>
<path fill="none" stroke="#56a2d8" stroke-width="2" d="M426.5,-828C426.5,-828 361.5,-828 361.5,-828 355.5,-828 349.5,-822 349.5,-816 349.5,-816 349.5,-804 349.5,-804 349.5,-798 355.5,-792 361.5,-792 361.5,-792 426.5,-792 426.5,-792 432.5,-792 438.5,-798 438.5,-804 438.5,-804 438.5,-816 438.5,-816 438.5,-822 432.5,-828 426.5,-828"/>
<text text-anchor="middle" x="394" y="-807.5" font-family="sans" font-size="10.00" fill="#000000">haplotigs_map</text>
</g>
<!-- 13&#45;&gt;19 -->
<g id="edge40" class="edge">
<title>13&#45;&gt;19</title>
<path fill="none" stroke="#c0c0c0" stroke-width="2" d="M378.2992,-863.8314C380.5698,-856.0463 383.2746,-846.7729 385.794,-838.1347"/>
<polygon fill="#c0c0c0" stroke="#c0c0c0" stroke-width="2" points="389.1894,-838.9933 388.6295,-828.4133 382.4694,-837.0332 389.1894,-838.9933"/>
</g>
<!-- 14 -->
<g id="node15" class="node">
<title>14</title>
<path fill="none" stroke="#56d863" stroke-width="2" d="M488,-612C488,-612 428,-612 428,-612 422,-612 416,-606 416,-600 416,-600 416,-588 416,-588 416,-582 422,-576 428,-576 428,-576 488,-576 488,-576 494,-576 500,-582 500,-588 500,-588 500,-600 500,-600 500,-606 494,-612 488,-612"/>
<text text-anchor="middle" x="458" y="-591.5" font-family="sans" font-size="10.00" fill="#000000">haplotigs_cov</text>
</g>
<!-- 14&#45;&gt;8 -->
<g id="edge24" class="edge">
<title>14&#45;&gt;8</title>
<path fill="none" stroke="#c0c0c0" stroke-width="2" d="M440.0837,-575.8314C431.6558,-567.2848 421.459,-556.9443 412.264,-547.6198"/>
<polygon fill="#c0c0c0" stroke="#c0c0c0" stroke-width="2" points="414.6711,-545.0761 405.1575,-540.4133 409.6869,-549.9912 414.6711,-545.0761"/>
</g>
<!-- 15 -->
<g id="node16" class="node">
<title>15</title>
<path fill="none" stroke="#d8bc56" stroke-width="2" d="M425,-756C425,-756 363,-756 363,-756 357,-756 351,-750 351,-744 351,-744 351,-732 351,-732 351,-726 357,-720 363,-720 363,-720 425,-720 425,-720 431,-720 437,-726 437,-732 437,-732 437,-744 437,-744 437,-750 431,-756 425,-756"/>
<text text-anchor="middle" x="394" y="-735.5" font-family="sans" font-size="10.00" fill="#000000">haplotigs_sort</text>
</g>
<!-- 15&#45;&gt;8 -->
<g id="edge23" class="edge">
<title>15&#45;&gt;8</title>
<path fill="none" stroke="#c0c0c0" stroke-width="2" d="M393.4152,-719.9555C392.1979,-682.3938 389.3837,-595.5541 387.9207,-550.4103"/>
<polygon fill="#c0c0c0" stroke="#c0c0c0" stroke-width="2" points="391.4102,-550.0264 387.588,-540.1451 384.4139,-550.2532 391.4102,-550.0264"/>
</g>
<!-- 15&#45;&gt;18 -->
<g id="edge38" class="edge">
<title>15&#45;&gt;18</title>
<path fill="none" stroke="#c0c0c0" stroke-width="2" d="M410.1499,-719.8314C417.6717,-711.3694 426.7565,-701.1489 434.9804,-691.8971"/>
<polygon fill="#c0c0c0" stroke="#c0c0c0" stroke-width="2" points="437.6049,-694.2127 441.6327,-684.4133 432.373,-689.5621 437.6049,-694.2127"/>
</g>
<!-- 16 -->
<g id="node17" class="node">
<title>16</title>
<path fill="none" stroke="#61d856" stroke-width="2" d="M257,-252C257,-252 215,-252 215,-252 209,-252 203,-246 203,-240 203,-240 203,-228 203,-228 203,-222 209,-216 215,-216 215,-216 257,-216 257,-216 263,-216 269,-222 269,-228 269,-228 269,-240 269,-240 269,-246 263,-252 257,-252"/>
<text text-anchor="middle" x="236" y="-231.5" font-family="sans" font-size="10.00" fill="#000000">rm_model</text>
</g>
<!-- 16&#45;&gt;10 -->
<g id="edge28" class="edge">
<title>16&#45;&gt;10</title>
<path fill="none" stroke="#c0c0c0" stroke-width="2" d="M235.4953,-215.8314C235.2814,-208.131 235.0271,-198.9743 234.7894,-190.4166"/>
<polygon fill="#c0c0c0" stroke="#c0c0c0" stroke-width="2" points="238.2879,-190.3122 234.5115,-180.4133 231.2906,-190.5066 238.2879,-190.3122"/>
</g>
<!-- 17&#45;&gt;11 -->
<g id="edge29" class="edge">
<title>17&#45;&gt;11</title>
<path fill="none" stroke="#c0c0c0" stroke-width="2" d="M218.0656,-431.8314C221.126,-423.9617 224.7779,-414.5712 228.1682,-405.8533"/>
<polygon fill="#c0c0c0" stroke="#c0c0c0" stroke-width="2" points="231.4768,-407.0019 231.8393,-396.4133 224.9527,-404.4647 231.4768,-407.0019"/>
</g>
<!-- 18&#45;&gt;14 -->
<g id="edge31" class="edge">
<title>18&#45;&gt;14</title>
<path fill="none" stroke="#c0c0c0" stroke-width="2" d="M458,-647.8314C458,-640.131 458,-630.9743 458,-622.4166"/>
<polygon fill="#c0c0c0" stroke="#c0c0c0" stroke-width="2" points="461.5001,-622.4132 458,-612.4133 454.5001,-622.4133 461.5001,-622.4132"/>
</g>
<!-- 19&#45;&gt;15 -->
<g id="edge32" class="edge">
<title>19&#45;&gt;15</title>
<path fill="none" stroke="#c0c0c0" stroke-width="2" d="M394,-791.8314C394,-784.131 394,-774.9743 394,-766.4166"/>
<polygon fill="#c0c0c0" stroke="#c0c0c0" stroke-width="2" points="397.5001,-766.4132 394,-756.4133 390.5001,-766.4133 397.5001,-766.4132"/>
</g>
<!-- 20&#45;&gt;16 -->
<g id="edge33" class="edge">
<title>20&#45;&gt;16</title>
<path fill="none" stroke="#c0c0c0" stroke-width="2" d="M236.7477,-287.8314C236.6407,-280.131 236.5135,-270.9743 236.3947,-262.4166"/>
<polygon fill="#c0c0c0" stroke="#c0c0c0" stroke-width="2" points="239.8944,-262.3637 236.2557,-252.4133 232.8951,-262.4609 239.8944,-262.3637"/>
</g>
</g>
</svg>
